<?xml version="1.0" encoding="utf-8" standalone="no"?>
<!DOCTYPE svg PUBLIC "-//W3C//DTD SVG 1.1//EN"
  "http://www.w3.org/Graphics/SVG/1.1/DTD/svg11.dtd">
<svg xmlns:xlink="http://www.w3.org/1999/xlink" width="720pt" height="432pt" viewBox="0 0 720 432" xmlns="http://www.w3.org/2000/svg" version="1.1">
 <metadata>
  <rdf:RDF xmlns:dc="http://purl.org/dc/elements/1.1/" xmlns:cc="http://creativecommons.org/ns#" xmlns:rdf="http://www.w3.org/1999/02/22-rdf-syntax-ns#">
   <cc:Work>
    <dc:type rdf:resource="http://purl.org/dc/dcmitype/StillImage"/>
    <dc:date>2024-11-05T21:24:44.154077</dc:date>
    <dc:format>image/svg+xml</dc:format>
    <dc:creator>
     <cc:Agent>
      <dc:title>Matplotlib v3.9.2, https://matplotlib.org/</dc:title>
     </cc:Agent>
    </dc:creator>
   </cc:Work>
  </rdf:RDF>
 </metadata>
 <defs>
  <style type="text/css">*{stroke-linejoin: round; stroke-linecap: butt}</style>
 </defs>
 <g id="figure_1">
  <g id="patch_1">
   <path d="M 0 432 
L 720 432 
L 720 0 
L 0 0 
z
" style="fill: #ffffff"/>
  </g>
  <g id="axes_1">
   <g id="patch_2">
    <path d="M 90 384.48 
L 648 384.48 
L 648 51.84 
L 90 51.84 
z
" style="fill: #ffffff"/>
   </g>
   <g id="matplotlib.axis_1">
    <g id="xtick_1">
     <g id="line2d_1">
      <path d="M 115.363636 384.48 
L 115.363636 51.84 
" clip-path="url(#p8d49bc0d5c)" style="fill: none; stroke: #b0b0b0; stroke-width: 0.8; stroke-linecap: square"/>
     </g>
     <g id="line2d_2">
      <defs>
       <path id="mca55161b8f" d="M 0 0 
L 0 3.5 
" style="stroke: #000000; stroke-width: 0.8"/>
      </defs>
      <g>
       <use xlink:href="#mca55161b8f" x="115.363636" y="384.48" style="stroke: #000000; stroke-width: 0.8"/>
      </g>
     </g>
     <g id="text_1">
      <!-- 0 -->
      <g transform="translate(112.182386 399.078438) scale(0.1 -0.1)">
       <defs>
        <path id="DejaVuSans-30" d="M 2034 4250 
Q 1547 4250 1301 3770 
Q 1056 3291 1056 2328 
Q 1056 1369 1301 889 
Q 1547 409 2034 409 
Q 2525 409 2770 889 
Q 3016 1369 3016 2328 
Q 3016 3291 2770 3770 
Q 2525 4250 2034 4250 
z
M 2034 4750 
Q 2819 4750 3233 4129 
Q 3647 3509 3647 2328 
Q 3647 1150 3233 529 
Q 2819 -91 2034 -91 
Q 1250 -91 836 529 
Q 422 1150 422 2328 
Q 422 3509 836 4129 
Q 1250 4750 2034 4750 
z
" transform="scale(0.015625)"/>
       </defs>
       <use xlink:href="#DejaVuSans-30"/>
      </g>
     </g>
    </g>
    <g id="xtick_2">
     <g id="line2d_3">
      <path d="M 217.842975 384.48 
L 217.842975 51.84 
" clip-path="url(#p8d49bc0d5c)" style="fill: none; stroke: #b0b0b0; stroke-width: 0.8; stroke-linecap: square"/>
     </g>
     <g id="line2d_4">
      <g>
       <use xlink:href="#mca55161b8f" x="217.842975" y="384.48" style="stroke: #000000; stroke-width: 0.8"/>
      </g>
     </g>
     <g id="text_2">
      <!-- 20 -->
      <g transform="translate(211.480475 399.078438) scale(0.1 -0.1)">
       <defs>
        <path id="DejaVuSans-32" d="M 1228 531 
L 3431 531 
L 3431 0 
L 469 0 
L 469 531 
Q 828 903 1448 1529 
Q 2069 2156 2228 2338 
Q 2531 2678 2651 2914 
Q 2772 3150 2772 3378 
Q 2772 3750 2511 3984 
Q 2250 4219 1831 4219 
Q 1534 4219 1204 4116 
Q 875 4013 500 3803 
L 500 4441 
Q 881 4594 1212 4672 
Q 1544 4750 1819 4750 
Q 2544 4750 2975 4387 
Q 3406 4025 3406 3419 
Q 3406 3131 3298 2873 
Q 3191 2616 2906 2266 
Q 2828 2175 2409 1742 
Q 1991 1309 1228 531 
z
" transform="scale(0.015625)"/>
       </defs>
       <use xlink:href="#DejaVuSans-32"/>
       <use xlink:href="#DejaVuSans-30" x="63.623047"/>
      </g>
     </g>
    </g>
    <g id="xtick_3">
     <g id="line2d_5">
      <path d="M 320.322314 384.48 
L 320.322314 51.84 
" clip-path="url(#p8d49bc0d5c)" style="fill: none; stroke: #b0b0b0; stroke-width: 0.8; stroke-linecap: square"/>
     </g>
     <g id="line2d_6">
      <g>
       <use xlink:href="#mca55161b8f" x="320.322314" y="384.48" style="stroke: #000000; stroke-width: 0.8"/>
      </g>
     </g>
     <g id="text_3">
      <!-- 40 -->
      <g transform="translate(313.959814 399.078438) scale(0.1 -0.1)">
       <defs>
        <path id="DejaVuSans-34" d="M 2419 4116 
L 825 1625 
L 2419 1625 
L 2419 4116 
z
M 2253 4666 
L 3047 4666 
L 3047 1625 
L 3713 1625 
L 3713 1100 
L 3047 1100 
L 3047 0 
L 2419 0 
L 2419 1100 
L 313 1100 
L 313 1709 
L 2253 4666 
z
" transform="scale(0.015625)"/>
       </defs>
       <use xlink:href="#DejaVuSans-34"/>
       <use xlink:href="#DejaVuSans-30" x="63.623047"/>
      </g>
     </g>
    </g>
    <g id="xtick_4">
     <g id="line2d_7">
      <path d="M 422.801653 384.48 
L 422.801653 51.84 
" clip-path="url(#p8d49bc0d5c)" style="fill: none; stroke: #b0b0b0; stroke-width: 0.8; stroke-linecap: square"/>
     </g>
     <g id="line2d_8">
      <g>
       <use xlink:href="#mca55161b8f" x="422.801653" y="384.48" style="stroke: #000000; stroke-width: 0.8"/>
      </g>
     </g>
     <g id="text_4">
      <!-- 60 -->
      <g transform="translate(416.439153 399.078438) scale(0.1 -0.1)">
       <defs>
        <path id="DejaVuSans-36" d="M 2113 2584 
Q 1688 2584 1439 2293 
Q 1191 2003 1191 1497 
Q 1191 994 1439 701 
Q 1688 409 2113 409 
Q 2538 409 2786 701 
Q 3034 994 3034 1497 
Q 3034 2003 2786 2293 
Q 2538 2584 2113 2584 
z
M 3366 4563 
L 3366 3988 
Q 3128 4100 2886 4159 
Q 2644 4219 2406 4219 
Q 1781 4219 1451 3797 
Q 1122 3375 1075 2522 
Q 1259 2794 1537 2939 
Q 1816 3084 2150 3084 
Q 2853 3084 3261 2657 
Q 3669 2231 3669 1497 
Q 3669 778 3244 343 
Q 2819 -91 2113 -91 
Q 1303 -91 875 529 
Q 447 1150 447 2328 
Q 447 3434 972 4092 
Q 1497 4750 2381 4750 
Q 2619 4750 2861 4703 
Q 3103 4656 3366 4563 
z
" transform="scale(0.015625)"/>
       </defs>
       <use xlink:href="#DejaVuSans-36"/>
       <use xlink:href="#DejaVuSans-30" x="63.623047"/>
      </g>
     </g>
    </g>
    <g id="xtick_5">
     <g id="line2d_9">
      <path d="M 525.280992 384.48 
L 525.280992 51.84 
" clip-path="url(#p8d49bc0d5c)" style="fill: none; stroke: #b0b0b0; stroke-width: 0.8; stroke-linecap: square"/>
     </g>
     <g id="line2d_10">
      <g>
       <use xlink:href="#mca55161b8f" x="525.280992" y="384.48" style="stroke: #000000; stroke-width: 0.8"/>
      </g>
     </g>
     <g id="text_5">
      <!-- 80 -->
      <g transform="translate(518.918492 399.078438) scale(0.1 -0.1)">
       <defs>
        <path id="DejaVuSans-38" d="M 2034 2216 
Q 1584 2216 1326 1975 
Q 1069 1734 1069 1313 
Q 1069 891 1326 650 
Q 1584 409 2034 409 
Q 2484 409 2743 651 
Q 3003 894 3003 1313 
Q 3003 1734 2745 1975 
Q 2488 2216 2034 2216 
z
M 1403 2484 
Q 997 2584 770 2862 
Q 544 3141 544 3541 
Q 544 4100 942 4425 
Q 1341 4750 2034 4750 
Q 2731 4750 3128 4425 
Q 3525 4100 3525 3541 
Q 3525 3141 3298 2862 
Q 3072 2584 2669 2484 
Q 3125 2378 3379 2068 
Q 3634 1759 3634 1313 
Q 3634 634 3220 271 
Q 2806 -91 2034 -91 
Q 1263 -91 848 271 
Q 434 634 434 1313 
Q 434 1759 690 2068 
Q 947 2378 1403 2484 
z
M 1172 3481 
Q 1172 3119 1398 2916 
Q 1625 2713 2034 2713 
Q 2441 2713 2670 2916 
Q 2900 3119 2900 3481 
Q 2900 3844 2670 4047 
Q 2441 4250 2034 4250 
Q 1625 4250 1398 4047 
Q 1172 3844 1172 3481 
z
" transform="scale(0.015625)"/>
       </defs>
       <use xlink:href="#DejaVuSans-38"/>
       <use xlink:href="#DejaVuSans-30" x="63.623047"/>
      </g>
     </g>
    </g>
    <g id="xtick_6">
     <g id="line2d_11">
      <path d="M 627.760331 384.48 
L 627.760331 51.84 
" clip-path="url(#p8d49bc0d5c)" style="fill: none; stroke: #b0b0b0; stroke-width: 0.8; stroke-linecap: square"/>
     </g>
     <g id="line2d_12">
      <g>
       <use xlink:href="#mca55161b8f" x="627.760331" y="384.48" style="stroke: #000000; stroke-width: 0.8"/>
      </g>
     </g>
     <g id="text_6">
      <!-- 100 -->
      <g transform="translate(618.216581 399.078438) scale(0.1 -0.1)">
       <defs>
        <path id="DejaVuSans-31" d="M 794 531 
L 1825 531 
L 1825 4091 
L 703 3866 
L 703 4441 
L 1819 4666 
L 2450 4666 
L 2450 531 
L 3481 531 
L 3481 0 
L 794 0 
L 794 531 
z
" transform="scale(0.015625)"/>
       </defs>
       <use xlink:href="#DejaVuSans-31"/>
       <use xlink:href="#DejaVuSans-30" x="63.623047"/>
       <use xlink:href="#DejaVuSans-30" x="127.246094"/>
      </g>
     </g>
    </g>
    <g id="text_7">
     <!-- Topic Index -->
     <g transform="translate(341.06875 412.756563) scale(0.1 -0.1)">
      <defs>
       <path id="DejaVuSans-54" d="M -19 4666 
L 3928 4666 
L 3928 4134 
L 2272 4134 
L 2272 0 
L 1638 0 
L 1638 4134 
L -19 4134 
L -19 4666 
z
" transform="scale(0.015625)"/>
       <path id="DejaVuSans-6f" d="M 1959 3097 
Q 1497 3097 1228 2736 
Q 959 2375 959 1747 
Q 959 1119 1226 758 
Q 1494 397 1959 397 
Q 2419 397 2687 759 
Q 2956 1122 2956 1747 
Q 2956 2369 2687 2733 
Q 2419 3097 1959 3097 
z
M 1959 3584 
Q 2709 3584 3137 3096 
Q 3566 2609 3566 1747 
Q 3566 888 3137 398 
Q 2709 -91 1959 -91 
Q 1206 -91 779 398 
Q 353 888 353 1747 
Q 353 2609 779 3096 
Q 1206 3584 1959 3584 
z
" transform="scale(0.015625)"/>
       <path id="DejaVuSans-70" d="M 1159 525 
L 1159 -1331 
L 581 -1331 
L 581 3500 
L 1159 3500 
L 1159 2969 
Q 1341 3281 1617 3432 
Q 1894 3584 2278 3584 
Q 2916 3584 3314 3078 
Q 3713 2572 3713 1747 
Q 3713 922 3314 415 
Q 2916 -91 2278 -91 
Q 1894 -91 1617 61 
Q 1341 213 1159 525 
z
M 3116 1747 
Q 3116 2381 2855 2742 
Q 2594 3103 2138 3103 
Q 1681 3103 1420 2742 
Q 1159 2381 1159 1747 
Q 1159 1113 1420 752 
Q 1681 391 2138 391 
Q 2594 391 2855 752 
Q 3116 1113 3116 1747 
z
" transform="scale(0.015625)"/>
       <path id="DejaVuSans-69" d="M 603 3500 
L 1178 3500 
L 1178 0 
L 603 0 
L 603 3500 
z
M 603 4863 
L 1178 4863 
L 1178 4134 
L 603 4134 
L 603 4863 
z
" transform="scale(0.015625)"/>
       <path id="DejaVuSans-63" d="M 3122 3366 
L 3122 2828 
Q 2878 2963 2633 3030 
Q 2388 3097 2138 3097 
Q 1578 3097 1268 2742 
Q 959 2388 959 1747 
Q 959 1106 1268 751 
Q 1578 397 2138 397 
Q 2388 397 2633 464 
Q 2878 531 3122 666 
L 3122 134 
Q 2881 22 2623 -34 
Q 2366 -91 2075 -91 
Q 1284 -91 818 406 
Q 353 903 353 1747 
Q 353 2603 823 3093 
Q 1294 3584 2113 3584 
Q 2378 3584 2631 3529 
Q 2884 3475 3122 3366 
z
" transform="scale(0.015625)"/>
       <path id="DejaVuSans-20" transform="scale(0.015625)"/>
       <path id="DejaVuSans-49" d="M 628 4666 
L 1259 4666 
L 1259 0 
L 628 0 
L 628 4666 
z
" transform="scale(0.015625)"/>
       <path id="DejaVuSans-6e" d="M 3513 2113 
L 3513 0 
L 2938 0 
L 2938 2094 
Q 2938 2591 2744 2837 
Q 2550 3084 2163 3084 
Q 1697 3084 1428 2787 
Q 1159 2491 1159 1978 
L 1159 0 
L 581 0 
L 581 3500 
L 1159 3500 
L 1159 2956 
Q 1366 3272 1645 3428 
Q 1925 3584 2291 3584 
Q 2894 3584 3203 3211 
Q 3513 2838 3513 2113 
z
" transform="scale(0.015625)"/>
       <path id="DejaVuSans-64" d="M 2906 2969 
L 2906 4863 
L 3481 4863 
L 3481 0 
L 2906 0 
L 2906 525 
Q 2725 213 2448 61 
Q 2172 -91 1784 -91 
Q 1150 -91 751 415 
Q 353 922 353 1747 
Q 353 2572 751 3078 
Q 1150 3584 1784 3584 
Q 2172 3584 2448 3432 
Q 2725 3281 2906 2969 
z
M 947 1747 
Q 947 1113 1208 752 
Q 1469 391 1925 391 
Q 2381 391 2643 752 
Q 2906 1113 2906 1747 
Q 2906 2381 2643 2742 
Q 2381 3103 1925 3103 
Q 1469 3103 1208 2742 
Q 947 2381 947 1747 
z
" transform="scale(0.015625)"/>
       <path id="DejaVuSans-65" d="M 3597 1894 
L 3597 1613 
L 953 1613 
Q 991 1019 1311 708 
Q 1631 397 2203 397 
Q 2534 397 2845 478 
Q 3156 559 3463 722 
L 3463 178 
Q 3153 47 2828 -22 
Q 2503 -91 2169 -91 
Q 1331 -91 842 396 
Q 353 884 353 1716 
Q 353 2575 817 3079 
Q 1281 3584 2069 3584 
Q 2775 3584 3186 3129 
Q 3597 2675 3597 1894 
z
M 3022 2063 
Q 3016 2534 2758 2815 
Q 2500 3097 2075 3097 
Q 1594 3097 1305 2825 
Q 1016 2553 972 2059 
L 3022 2063 
z
" transform="scale(0.015625)"/>
       <path id="DejaVuSans-78" d="M 3513 3500 
L 2247 1797 
L 3578 0 
L 2900 0 
L 1881 1375 
L 863 0 
L 184 0 
L 1544 1831 
L 300 3500 
L 978 3500 
L 1906 2253 
L 2834 3500 
L 3513 3500 
z
" transform="scale(0.015625)"/>
      </defs>
      <use xlink:href="#DejaVuSans-54"/>
      <use xlink:href="#DejaVuSans-6f" x="44.083984"/>
      <use xlink:href="#DejaVuSans-70" x="105.265625"/>
      <use xlink:href="#DejaVuSans-69" x="168.742188"/>
      <use xlink:href="#DejaVuSans-63" x="196.525391"/>
      <use xlink:href="#DejaVuSans-20" x="251.505859"/>
      <use xlink:href="#DejaVuSans-49" x="283.292969"/>
      <use xlink:href="#DejaVuSans-6e" x="312.785156"/>
      <use xlink:href="#DejaVuSans-64" x="376.164062"/>
      <use xlink:href="#DejaVuSans-65" x="439.640625"/>
      <use xlink:href="#DejaVuSans-78" x="499.414062"/>
     </g>
    </g>
   </g>
   <g id="matplotlib.axis_2">
    <g id="ytick_1">
     <g id="line2d_13">
      <path d="M 90 318.52013 
L 648 318.52013 
" clip-path="url(#p8d49bc0d5c)" style="fill: none; stroke: #b0b0b0; stroke-width: 0.8; stroke-linecap: square"/>
     </g>
     <g id="line2d_14">
      <defs>
       <path id="mb4207e580a" d="M 0 0 
L -3.5 0 
" style="stroke: #000000; stroke-width: 0.8"/>
      </defs>
      <g>
       <use xlink:href="#mb4207e580a" x="90" y="318.52013" style="stroke: #000000; stroke-width: 0.8"/>
      </g>
     </g>
     <g id="text_8">
      <!-- 0.5 -->
      <g transform="translate(67.096875 322.319349) scale(0.1 -0.1)">
       <defs>
        <path id="DejaVuSans-2e" d="M 684 794 
L 1344 794 
L 1344 0 
L 684 0 
L 684 794 
z
" transform="scale(0.015625)"/>
        <path id="DejaVuSans-35" d="M 691 4666 
L 3169 4666 
L 3169 4134 
L 1269 4134 
L 1269 2991 
Q 1406 3038 1543 3061 
Q 1681 3084 1819 3084 
Q 2600 3084 3056 2656 
Q 3513 2228 3513 1497 
Q 3513 744 3044 326 
Q 2575 -91 1722 -91 
Q 1428 -91 1123 -41 
Q 819 9 494 109 
L 494 744 
Q 775 591 1075 516 
Q 1375 441 1709 441 
Q 2250 441 2565 725 
Q 2881 1009 2881 1497 
Q 2881 1984 2565 2268 
Q 2250 2553 1709 2553 
Q 1456 2553 1204 2497 
Q 953 2441 691 2322 
L 691 4666 
z
" transform="scale(0.015625)"/>
       </defs>
       <use xlink:href="#DejaVuSans-30"/>
       <use xlink:href="#DejaVuSans-2e" x="63.623047"/>
       <use xlink:href="#DejaVuSans-35" x="95.410156"/>
      </g>
     </g>
    </g>
    <g id="ytick_2">
     <g id="line2d_15">
      <path d="M 90 251.764471 
L 648 251.764471 
" clip-path="url(#p8d49bc0d5c)" style="fill: none; stroke: #b0b0b0; stroke-width: 0.8; stroke-linecap: square"/>
     </g>
     <g id="line2d_16">
      <g>
       <use xlink:href="#mb4207e580a" x="90" y="251.764471" style="stroke: #000000; stroke-width: 0.8"/>
      </g>
     </g>
     <g id="text_9">
      <!-- 1.0 -->
      <g transform="translate(67.096875 255.563689) scale(0.1 -0.1)">
       <use xlink:href="#DejaVuSans-31"/>
       <use xlink:href="#DejaVuSans-2e" x="63.623047"/>
       <use xlink:href="#DejaVuSans-30" x="95.410156"/>
      </g>
     </g>
    </g>
    <g id="ytick_3">
     <g id="line2d_17">
      <path d="M 90 185.008811 
L 648 185.008811 
" clip-path="url(#p8d49bc0d5c)" style="fill: none; stroke: #b0b0b0; stroke-width: 0.8; stroke-linecap: square"/>
     </g>
     <g id="line2d_18">
      <g>
       <use xlink:href="#mb4207e580a" x="90" y="185.008811" style="stroke: #000000; stroke-width: 0.8"/>
      </g>
     </g>
     <g id="text_10">
      <!-- 1.5 -->
      <g transform="translate(67.096875 188.80803) scale(0.1 -0.1)">
       <use xlink:href="#DejaVuSans-31"/>
       <use xlink:href="#DejaVuSans-2e" x="63.623047"/>
       <use xlink:href="#DejaVuSans-35" x="95.410156"/>
      </g>
     </g>
    </g>
    <g id="ytick_4">
     <g id="line2d_19">
      <path d="M 90 118.253152 
L 648 118.253152 
" clip-path="url(#p8d49bc0d5c)" style="fill: none; stroke: #b0b0b0; stroke-width: 0.8; stroke-linecap: square"/>
     </g>
     <g id="line2d_20">
      <g>
       <use xlink:href="#mb4207e580a" x="90" y="118.253152" style="stroke: #000000; stroke-width: 0.8"/>
      </g>
     </g>
     <g id="text_11">
      <!-- 2.0 -->
      <g transform="translate(67.096875 122.05237) scale(0.1 -0.1)">
       <use xlink:href="#DejaVuSans-32"/>
       <use xlink:href="#DejaVuSans-2e" x="63.623047"/>
       <use xlink:href="#DejaVuSans-30" x="95.410156"/>
      </g>
     </g>
    </g>
    <g id="text_12">
     <!-- Time (seconds) -->
     <g transform="translate(61.017187 256.321719) rotate(-90) scale(0.1 -0.1)">
      <defs>
       <path id="DejaVuSans-6d" d="M 3328 2828 
Q 3544 3216 3844 3400 
Q 4144 3584 4550 3584 
Q 5097 3584 5394 3201 
Q 5691 2819 5691 2113 
L 5691 0 
L 5113 0 
L 5113 2094 
Q 5113 2597 4934 2840 
Q 4756 3084 4391 3084 
Q 3944 3084 3684 2787 
Q 3425 2491 3425 1978 
L 3425 0 
L 2847 0 
L 2847 2094 
Q 2847 2600 2669 2842 
Q 2491 3084 2119 3084 
Q 1678 3084 1418 2786 
Q 1159 2488 1159 1978 
L 1159 0 
L 581 0 
L 581 3500 
L 1159 3500 
L 1159 2956 
Q 1356 3278 1631 3431 
Q 1906 3584 2284 3584 
Q 2666 3584 2933 3390 
Q 3200 3197 3328 2828 
z
" transform="scale(0.015625)"/>
       <path id="DejaVuSans-28" d="M 1984 4856 
Q 1566 4138 1362 3434 
Q 1159 2731 1159 2009 
Q 1159 1288 1364 580 
Q 1569 -128 1984 -844 
L 1484 -844 
Q 1016 -109 783 600 
Q 550 1309 550 2009 
Q 550 2706 781 3412 
Q 1013 4119 1484 4856 
L 1984 4856 
z
" transform="scale(0.015625)"/>
       <path id="DejaVuSans-73" d="M 2834 3397 
L 2834 2853 
Q 2591 2978 2328 3040 
Q 2066 3103 1784 3103 
Q 1356 3103 1142 2972 
Q 928 2841 928 2578 
Q 928 2378 1081 2264 
Q 1234 2150 1697 2047 
L 1894 2003 
Q 2506 1872 2764 1633 
Q 3022 1394 3022 966 
Q 3022 478 2636 193 
Q 2250 -91 1575 -91 
Q 1294 -91 989 -36 
Q 684 19 347 128 
L 347 722 
Q 666 556 975 473 
Q 1284 391 1588 391 
Q 1994 391 2212 530 
Q 2431 669 2431 922 
Q 2431 1156 2273 1281 
Q 2116 1406 1581 1522 
L 1381 1569 
Q 847 1681 609 1914 
Q 372 2147 372 2553 
Q 372 3047 722 3315 
Q 1072 3584 1716 3584 
Q 2034 3584 2315 3537 
Q 2597 3491 2834 3397 
z
" transform="scale(0.015625)"/>
       <path id="DejaVuSans-29" d="M 513 4856 
L 1013 4856 
Q 1481 4119 1714 3412 
Q 1947 2706 1947 2009 
Q 1947 1309 1714 600 
Q 1481 -109 1013 -844 
L 513 -844 
Q 928 -128 1133 580 
Q 1338 1288 1338 2009 
Q 1338 2731 1133 3434 
Q 928 4138 513 4856 
z
" transform="scale(0.015625)"/>
      </defs>
      <use xlink:href="#DejaVuSans-54"/>
      <use xlink:href="#DejaVuSans-69" x="57.958984"/>
      <use xlink:href="#DejaVuSans-6d" x="85.742188"/>
      <use xlink:href="#DejaVuSans-65" x="183.154297"/>
      <use xlink:href="#DejaVuSans-20" x="244.677734"/>
      <use xlink:href="#DejaVuSans-28" x="276.464844"/>
      <use xlink:href="#DejaVuSans-73" x="315.478516"/>
      <use xlink:href="#DejaVuSans-65" x="367.578125"/>
      <use xlink:href="#DejaVuSans-63" x="429.101562"/>
      <use xlink:href="#DejaVuSans-6f" x="484.082031"/>
      <use xlink:href="#DejaVuSans-6e" x="545.263672"/>
      <use xlink:href="#DejaVuSans-64" x="608.642578"/>
      <use xlink:href="#DejaVuSans-73" x="672.119141"/>
      <use xlink:href="#DejaVuSans-29" x="724.21875"/>
     </g>
    </g>
    <g id="text_13">
     <!-- 1e−5 -->
     <g transform="translate(90 48.84) scale(0.1 -0.1)">
      <defs>
       <path id="DejaVuSans-2212" d="M 678 2272 
L 4684 2272 
L 4684 1741 
L 678 1741 
L 678 2272 
z
" transform="scale(0.015625)"/>
      </defs>
      <use xlink:href="#DejaVuSans-31"/>
      <use xlink:href="#DejaVuSans-65" x="63.623047"/>
      <use xlink:href="#DejaVuSans-2212" x="125.146484"/>
      <use xlink:href="#DejaVuSans-35" x="208.935547"/>
     </g>
    </g>
   </g>
   <g id="line2d_21">
    <path d="M 115.363636 66.96 
L 120.487603 331.162105 
L 125.61157 362.993684 
L 130.735537 362.993684 
L 135.859504 362.993684 
L 140.983471 362.993684 
L 146.107438 366.176842 
L 151.231405 362.993684 
L 156.355372 366.176842 
L 161.479339 359.810526 
L 166.603306 366.176842 
L 171.727273 362.993684 
L 176.85124 366.176842 
L 181.975207 362.993684 
L 187.099174 369.36 
L 192.22314 362.993684 
L 197.347107 366.176842 
L 202.471074 362.993684 
L 207.595041 366.176842 
L 212.719008 362.993684 
L 217.842975 366.176842 
L 222.966942 369.36 
L 228.090909 366.176842 
L 233.214876 366.176842 
L 238.338843 362.993684 
L 243.46281 369.36 
L 248.586777 362.993684 
L 253.710744 366.176842 
L 258.834711 366.176842 
L 263.958678 366.176842 
L 269.082645 362.993684 
L 274.206612 366.176842 
L 279.330579 366.176842 
L 284.454545 369.36 
L 289.578512 366.176842 
L 294.702479 362.993684 
L 299.826446 366.176842 
L 304.950413 362.993684 
L 310.07438 366.176842 
L 315.198347 366.176842 
L 320.322314 366.176842 
L 325.446281 362.993684 
L 330.570248 366.176842 
L 335.694215 366.176842 
L 340.818182 366.176842 
L 345.942149 366.176842 
L 351.066116 369.36 
L 356.190083 366.176842 
L 361.31405 362.993684 
L 366.438017 369.36 
L 371.561983 362.993684 
L 376.68595 366.176842 
L 381.809917 362.993684 
L 386.933884 369.36 
L 392.057851 362.993684 
L 397.181818 366.176842 
L 402.305785 366.176842 
L 407.429752 362.993684 
L 412.553719 366.176842 
L 417.677686 362.993684 
L 422.801653 366.176842 
L 427.92562 362.993684 
L 433.049587 369.36 
L 438.173554 366.176842 
L 443.297521 369.36 
L 448.421488 366.176842 
L 453.545455 362.993684 
L 458.669421 366.176842 
L 463.793388 362.993684 
L 468.917355 366.176842 
L 474.041322 362.993684 
L 479.165289 366.176842 
L 484.289256 362.993684 
L 489.413223 366.176842 
L 494.53719 362.993684 
L 499.661157 366.176842 
L 504.785124 369.36 
L 509.909091 369.36 
L 515.033058 366.176842 
L 520.157025 362.993684 
L 525.280992 366.176842 
L 530.404959 362.993684 
L 535.528926 366.176842 
L 540.652893 362.993684 
L 545.77686 369.36 
L 550.900826 366.176842 
L 556.024793 369.36 
L 561.14876 359.810526 
L 566.272727 366.176842 
L 571.396694 366.176842 
L 576.520661 366.176842 
L 581.644628 369.36 
L 586.768595 362.993684 
L 591.892562 366.176842 
L 597.016529 366.176842 
L 602.140496 369.36 
L 607.264463 362.993684 
L 612.38843 369.36 
L 617.512397 362.993684 
L 622.636364 366.176842 
" clip-path="url(#p8d49bc0d5c)" style="fill: none; stroke: #0000ff; stroke-width: 1.5; stroke-linecap: square"/>
    <defs>
     <path id="m4545966aee" d="M 0 3 
C 0.795609 3 1.55874 2.683901 2.12132 2.12132 
C 2.683901 1.55874 3 0.795609 3 0 
C 3 -0.795609 2.683901 -1.55874 2.12132 -2.12132 
C 1.55874 -2.683901 0.795609 -3 0 -3 
C -0.795609 -3 -1.55874 -2.683901 -2.12132 -2.12132 
C -2.683901 -1.55874 -3 -0.795609 -3 0 
C -3 0.795609 -2.683901 1.55874 -2.12132 2.12132 
C -1.55874 2.683901 -0.795609 3 0 3 
z
" style="stroke: #0000ff"/>
    </defs>
    <g clip-path="url(#p8d49bc0d5c)">
     <use xlink:href="#m4545966aee" x="115.363636" y="66.96" style="fill: #0000ff; stroke: #0000ff"/>
     <use xlink:href="#m4545966aee" x="120.487603" y="331.162105" style="fill: #0000ff; stroke: #0000ff"/>
     <use xlink:href="#m4545966aee" x="125.61157" y="362.993684" style="fill: #0000ff; stroke: #0000ff"/>
     <use xlink:href="#m4545966aee" x="130.735537" y="362.993684" style="fill: #0000ff; stroke: #0000ff"/>
     <use xlink:href="#m4545966aee" x="135.859504" y="362.993684" style="fill: #0000ff; stroke: #0000ff"/>
     <use xlink:href="#m4545966aee" x="140.983471" y="362.993684" style="fill: #0000ff; stroke: #0000ff"/>
     <use xlink:href="#m4545966aee" x="146.107438" y="366.176842" style="fill: #0000ff; stroke: #0000ff"/>
     <use xlink:href="#m4545966aee" x="151.231405" y="362.993684" style="fill: #0000ff; stroke: #0000ff"/>
     <use xlink:href="#m4545966aee" x="156.355372" y="366.176842" style="fill: #0000ff; stroke: #0000ff"/>
     <use xlink:href="#m4545966aee" x="161.479339" y="359.810526" style="fill: #0000ff; stroke: #0000ff"/>
     <use xlink:href="#m4545966aee" x="166.603306" y="366.176842" style="fill: #0000ff; stroke: #0000ff"/>
     <use xlink:href="#m4545966aee" x="171.727273" y="362.993684" style="fill: #0000ff; stroke: #0000ff"/>
     <use xlink:href="#m4545966aee" x="176.85124" y="366.176842" style="fill: #0000ff; stroke: #0000ff"/>
     <use xlink:href="#m4545966aee" x="181.975207" y="362.993684" style="fill: #0000ff; stroke: #0000ff"/>
     <use xlink:href="#m4545966aee" x="187.099174" y="369.36" style="fill: #0000ff; stroke: #0000ff"/>
     <use xlink:href="#m4545966aee" x="192.22314" y="362.993684" style="fill: #0000ff; stroke: #0000ff"/>
     <use xlink:href="#m4545966aee" x="197.347107" y="366.176842" style="fill: #0000ff; stroke: #0000ff"/>
     <use xlink:href="#m4545966aee" x="202.471074" y="362.993684" style="fill: #0000ff; stroke: #0000ff"/>
     <use xlink:href="#m4545966aee" x="207.595041" y="366.176842" style="fill: #0000ff; stroke: #0000ff"/>
     <use xlink:href="#m4545966aee" x="212.719008" y="362.993684" style="fill: #0000ff; stroke: #0000ff"/>
     <use xlink:href="#m4545966aee" x="217.842975" y="366.176842" style="fill: #0000ff; stroke: #0000ff"/>
     <use xlink:href="#m4545966aee" x="222.966942" y="369.36" style="fill: #0000ff; stroke: #0000ff"/>
     <use xlink:href="#m4545966aee" x="228.090909" y="366.176842" style="fill: #0000ff; stroke: #0000ff"/>
     <use xlink:href="#m4545966aee" x="233.214876" y="366.176842" style="fill: #0000ff; stroke: #0000ff"/>
     <use xlink:href="#m4545966aee" x="238.338843" y="362.993684" style="fill: #0000ff; stroke: #0000ff"/>
     <use xlink:href="#m4545966aee" x="243.46281" y="369.36" style="fill: #0000ff; stroke: #0000ff"/>
     <use xlink:href="#m4545966aee" x="248.586777" y="362.993684" style="fill: #0000ff; stroke: #0000ff"/>
     <use xlink:href="#m4545966aee" x="253.710744" y="366.176842" style="fill: #0000ff; stroke: #0000ff"/>
     <use xlink:href="#m4545966aee" x="258.834711" y="366.176842" style="fill: #0000ff; stroke: #0000ff"/>
     <use xlink:href="#m4545966aee" x="263.958678" y="366.176842" style="fill: #0000ff; stroke: #0000ff"/>
     <use xlink:href="#m4545966aee" x="269.082645" y="362.993684" style="fill: #0000ff; stroke: #0000ff"/>
     <use xlink:href="#m4545966aee" x="274.206612" y="366.176842" style="fill: #0000ff; stroke: #0000ff"/>
     <use xlink:href="#m4545966aee" x="279.330579" y="366.176842" style="fill: #0000ff; stroke: #0000ff"/>
     <use xlink:href="#m4545966aee" x="284.454545" y="369.36" style="fill: #0000ff; stroke: #0000ff"/>
     <use xlink:href="#m4545966aee" x="289.578512" y="366.176842" style="fill: #0000ff; stroke: #0000ff"/>
     <use xlink:href="#m4545966aee" x="294.702479" y="362.993684" style="fill: #0000ff; stroke: #0000ff"/>
     <use xlink:href="#m4545966aee" x="299.826446" y="366.176842" style="fill: #0000ff; stroke: #0000ff"/>
     <use xlink:href="#m4545966aee" x="304.950413" y="362.993684" style="fill: #0000ff; stroke: #0000ff"/>
     <use xlink:href="#m4545966aee" x="310.07438" y="366.176842" style="fill: #0000ff; stroke: #0000ff"/>
     <use xlink:href="#m4545966aee" x="315.198347" y="366.176842" style="fill: #0000ff; stroke: #0000ff"/>
     <use xlink:href="#m4545966aee" x="320.322314" y="366.176842" style="fill: #0000ff; stroke: #0000ff"/>
     <use xlink:href="#m4545966aee" x="325.446281" y="362.993684" style="fill: #0000ff; stroke: #0000ff"/>
     <use xlink:href="#m4545966aee" x="330.570248" y="366.176842" style="fill: #0000ff; stroke: #0000ff"/>
     <use xlink:href="#m4545966aee" x="335.694215" y="366.176842" style="fill: #0000ff; stroke: #0000ff"/>
     <use xlink:href="#m4545966aee" x="340.818182" y="366.176842" style="fill: #0000ff; stroke: #0000ff"/>
     <use xlink:href="#m4545966aee" x="345.942149" y="366.176842" style="fill: #0000ff; stroke: #0000ff"/>
     <use xlink:href="#m4545966aee" x="351.066116" y="369.36" style="fill: #0000ff; stroke: #0000ff"/>
     <use xlink:href="#m4545966aee" x="356.190083" y="366.176842" style="fill: #0000ff; stroke: #0000ff"/>
     <use xlink:href="#m4545966aee" x="361.31405" y="362.993684" style="fill: #0000ff; stroke: #0000ff"/>
     <use xlink:href="#m4545966aee" x="366.438017" y="369.36" style="fill: #0000ff; stroke: #0000ff"/>
     <use xlink:href="#m4545966aee" x="371.561983" y="362.993684" style="fill: #0000ff; stroke: #0000ff"/>
     <use xlink:href="#m4545966aee" x="376.68595" y="366.176842" style="fill: #0000ff; stroke: #0000ff"/>
     <use xlink:href="#m4545966aee" x="381.809917" y="362.993684" style="fill: #0000ff; stroke: #0000ff"/>
     <use xlink:href="#m4545966aee" x="386.933884" y="369.36" style="fill: #0000ff; stroke: #0000ff"/>
     <use xlink:href="#m4545966aee" x="392.057851" y="362.993684" style="fill: #0000ff; stroke: #0000ff"/>
     <use xlink:href="#m4545966aee" x="397.181818" y="366.176842" style="fill: #0000ff; stroke: #0000ff"/>
     <use xlink:href="#m4545966aee" x="402.305785" y="366.176842" style="fill: #0000ff; stroke: #0000ff"/>
     <use xlink:href="#m4545966aee" x="407.429752" y="362.993684" style="fill: #0000ff; stroke: #0000ff"/>
     <use xlink:href="#m4545966aee" x="412.553719" y="366.176842" style="fill: #0000ff; stroke: #0000ff"/>
     <use xlink:href="#m4545966aee" x="417.677686" y="362.993684" style="fill: #0000ff; stroke: #0000ff"/>
     <use xlink:href="#m4545966aee" x="422.801653" y="366.176842" style="fill: #0000ff; stroke: #0000ff"/>
     <use xlink:href="#m4545966aee" x="427.92562" y="362.993684" style="fill: #0000ff; stroke: #0000ff"/>
     <use xlink:href="#m4545966aee" x="433.049587" y="369.36" style="fill: #0000ff; stroke: #0000ff"/>
     <use xlink:href="#m4545966aee" x="438.173554" y="366.176842" style="fill: #0000ff; stroke: #0000ff"/>
     <use xlink:href="#m4545966aee" x="443.297521" y="369.36" style="fill: #0000ff; stroke: #0000ff"/>
     <use xlink:href="#m4545966aee" x="448.421488" y="366.176842" style="fill: #0000ff; stroke: #0000ff"/>
     <use xlink:href="#m4545966aee" x="453.545455" y="362.993684" style="fill: #0000ff; stroke: #0000ff"/>
     <use xlink:href="#m4545966aee" x="458.669421" y="366.176842" style="fill: #0000ff; stroke: #0000ff"/>
     <use xlink:href="#m4545966aee" x="463.793388" y="362.993684" style="fill: #0000ff; stroke: #0000ff"/>
     <use xlink:href="#m4545966aee" x="468.917355" y="366.176842" style="fill: #0000ff; stroke: #0000ff"/>
     <use xlink:href="#m4545966aee" x="474.041322" y="362.993684" style="fill: #0000ff; stroke: #0000ff"/>
     <use xlink:href="#m4545966aee" x="479.165289" y="366.176842" style="fill: #0000ff; stroke: #0000ff"/>
     <use xlink:href="#m4545966aee" x="484.289256" y="362.993684" style="fill: #0000ff; stroke: #0000ff"/>
     <use xlink:href="#m4545966aee" x="489.413223" y="366.176842" style="fill: #0000ff; stroke: #0000ff"/>
     <use xlink:href="#m4545966aee" x="494.53719" y="362.993684" style="fill: #0000ff; stroke: #0000ff"/>
     <use xlink:href="#m4545966aee" x="499.661157" y="366.176842" style="fill: #0000ff; stroke: #0000ff"/>
     <use xlink:href="#m4545966aee" x="504.785124" y="369.36" style="fill: #0000ff; stroke: #0000ff"/>
     <use xlink:href="#m4545966aee" x="509.909091" y="369.36" style="fill: #0000ff; stroke: #0000ff"/>
     <use xlink:href="#m4545966aee" x="515.033058" y="366.176842" style="fill: #0000ff; stroke: #0000ff"/>
     <use xlink:href="#m4545966aee" x="520.157025" y="362.993684" style="fill: #0000ff; stroke: #0000ff"/>
     <use xlink:href="#m4545966aee" x="525.280992" y="366.176842" style="fill: #0000ff; stroke: #0000ff"/>
     <use xlink:href="#m4545966aee" x="530.404959" y="362.993684" style="fill: #0000ff; stroke: #0000ff"/>
     <use xlink:href="#m4545966aee" x="535.528926" y="366.176842" style="fill: #0000ff; stroke: #0000ff"/>
     <use xlink:href="#m4545966aee" x="540.652893" y="362.993684" style="fill: #0000ff; stroke: #0000ff"/>
     <use xlink:href="#m4545966aee" x="545.77686" y="369.36" style="fill: #0000ff; stroke: #0000ff"/>
     <use xlink:href="#m4545966aee" x="550.900826" y="366.176842" style="fill: #0000ff; stroke: #0000ff"/>
     <use xlink:href="#m4545966aee" x="556.024793" y="369.36" style="fill: #0000ff; stroke: #0000ff"/>
     <use xlink:href="#m4545966aee" x="561.14876" y="359.810526" style="fill: #0000ff; stroke: #0000ff"/>
     <use xlink:href="#m4545966aee" x="566.272727" y="366.176842" style="fill: #0000ff; stroke: #0000ff"/>
     <use xlink:href="#m4545966aee" x="571.396694" y="366.176842" style="fill: #0000ff; stroke: #0000ff"/>
     <use xlink:href="#m4545966aee" x="576.520661" y="366.176842" style="fill: #0000ff; stroke: #0000ff"/>
     <use xlink:href="#m4545966aee" x="581.644628" y="369.36" style="fill: #0000ff; stroke: #0000ff"/>
     <use xlink:href="#m4545966aee" x="586.768595" y="362.993684" style="fill: #0000ff; stroke: #0000ff"/>
     <use xlink:href="#m4545966aee" x="591.892562" y="366.176842" style="fill: #0000ff; stroke: #0000ff"/>
     <use xlink:href="#m4545966aee" x="597.016529" y="366.176842" style="fill: #0000ff; stroke: #0000ff"/>
     <use xlink:href="#m4545966aee" x="602.140496" y="369.36" style="fill: #0000ff; stroke: #0000ff"/>
     <use xlink:href="#m4545966aee" x="607.264463" y="362.993684" style="fill: #0000ff; stroke: #0000ff"/>
     <use xlink:href="#m4545966aee" x="612.38843" y="369.36" style="fill: #0000ff; stroke: #0000ff"/>
     <use xlink:href="#m4545966aee" x="617.512397" y="362.993684" style="fill: #0000ff; stroke: #0000ff"/>
     <use xlink:href="#m4545966aee" x="622.636364" y="366.176842" style="fill: #0000ff; stroke: #0000ff"/>
    </g>
   </g>
   <g id="patch_3">
    <path d="M 90 384.48 
L 90 51.84 
" style="fill: none; stroke: #000000; stroke-width: 0.8; stroke-linejoin: miter; stroke-linecap: square"/>
   </g>
   <g id="patch_4">
    <path d="M 648 384.48 
L 648 51.84 
" style="fill: none; stroke: #000000; stroke-width: 0.8; stroke-linejoin: miter; stroke-linecap: square"/>
   </g>
   <g id="patch_5">
    <path d="M 90 384.48 
L 648 384.48 
" style="fill: none; stroke: #000000; stroke-width: 0.8; stroke-linejoin: miter; stroke-linecap: square"/>
   </g>
   <g id="patch_6">
    <path d="M 90 51.84 
L 648 51.84 
" style="fill: none; stroke: #000000; stroke-width: 0.8; stroke-linejoin: miter; stroke-linecap: square"/>
   </g>
   <g id="text_14">
    <!-- Hash Function Execution Time -->
    <g transform="translate(278.522812 45.84) scale(0.12 -0.12)">
     <defs>
      <path id="DejaVuSans-48" d="M 628 4666 
L 1259 4666 
L 1259 2753 
L 3553 2753 
L 3553 4666 
L 4184 4666 
L 4184 0 
L 3553 0 
L 3553 2222 
L 1259 2222 
L 1259 0 
L 628 0 
L 628 4666 
z
" transform="scale(0.015625)"/>
      <path id="DejaVuSans-61" d="M 2194 1759 
Q 1497 1759 1228 1600 
Q 959 1441 959 1056 
Q 959 750 1161 570 
Q 1363 391 1709 391 
Q 2188 391 2477 730 
Q 2766 1069 2766 1631 
L 2766 1759 
L 2194 1759 
z
M 3341 1997 
L 3341 0 
L 2766 0 
L 2766 531 
Q 2569 213 2275 61 
Q 1981 -91 1556 -91 
Q 1019 -91 701 211 
Q 384 513 384 1019 
Q 384 1609 779 1909 
Q 1175 2209 1959 2209 
L 2766 2209 
L 2766 2266 
Q 2766 2663 2505 2880 
Q 2244 3097 1772 3097 
Q 1472 3097 1187 3025 
Q 903 2953 641 2809 
L 641 3341 
Q 956 3463 1253 3523 
Q 1550 3584 1831 3584 
Q 2591 3584 2966 3190 
Q 3341 2797 3341 1997 
z
" transform="scale(0.015625)"/>
      <path id="DejaVuSans-68" d="M 3513 2113 
L 3513 0 
L 2938 0 
L 2938 2094 
Q 2938 2591 2744 2837 
Q 2550 3084 2163 3084 
Q 1697 3084 1428 2787 
Q 1159 2491 1159 1978 
L 1159 0 
L 581 0 
L 581 4863 
L 1159 4863 
L 1159 2956 
Q 1366 3272 1645 3428 
Q 1925 3584 2291 3584 
Q 2894 3584 3203 3211 
Q 3513 2838 3513 2113 
z
" transform="scale(0.015625)"/>
      <path id="DejaVuSans-46" d="M 628 4666 
L 3309 4666 
L 3309 4134 
L 1259 4134 
L 1259 2759 
L 3109 2759 
L 3109 2228 
L 1259 2228 
L 1259 0 
L 628 0 
L 628 4666 
z
" transform="scale(0.015625)"/>
      <path id="DejaVuSans-75" d="M 544 1381 
L 544 3500 
L 1119 3500 
L 1119 1403 
Q 1119 906 1312 657 
Q 1506 409 1894 409 
Q 2359 409 2629 706 
Q 2900 1003 2900 1516 
L 2900 3500 
L 3475 3500 
L 3475 0 
L 2900 0 
L 2900 538 
Q 2691 219 2414 64 
Q 2138 -91 1772 -91 
Q 1169 -91 856 284 
Q 544 659 544 1381 
z
M 1991 3584 
L 1991 3584 
z
" transform="scale(0.015625)"/>
      <path id="DejaVuSans-74" d="M 1172 4494 
L 1172 3500 
L 2356 3500 
L 2356 3053 
L 1172 3053 
L 1172 1153 
Q 1172 725 1289 603 
Q 1406 481 1766 481 
L 2356 481 
L 2356 0 
L 1766 0 
Q 1100 0 847 248 
Q 594 497 594 1153 
L 594 3053 
L 172 3053 
L 172 3500 
L 594 3500 
L 594 4494 
L 1172 4494 
z
" transform="scale(0.015625)"/>
      <path id="DejaVuSans-45" d="M 628 4666 
L 3578 4666 
L 3578 4134 
L 1259 4134 
L 1259 2753 
L 3481 2753 
L 3481 2222 
L 1259 2222 
L 1259 531 
L 3634 531 
L 3634 0 
L 628 0 
L 628 4666 
z
" transform="scale(0.015625)"/>
     </defs>
     <use xlink:href="#DejaVuSans-48"/>
     <use xlink:href="#DejaVuSans-61" x="75.195312"/>
     <use xlink:href="#DejaVuSans-73" x="136.474609"/>
     <use xlink:href="#DejaVuSans-68" x="188.574219"/>
     <use xlink:href="#DejaVuSans-20" x="251.953125"/>
     <use xlink:href="#DejaVuSans-46" x="283.740234"/>
     <use xlink:href="#DejaVuSans-75" x="335.759766"/>
     <use xlink:href="#DejaVuSans-6e" x="399.138672"/>
     <use xlink:href="#DejaVuSans-63" x="462.517578"/>
     <use xlink:href="#DejaVuSans-74" x="517.498047"/>
     <use xlink:href="#DejaVuSans-69" x="556.707031"/>
     <use xlink:href="#DejaVuSans-6f" x="584.490234"/>
     <use xlink:href="#DejaVuSans-6e" x="645.671875"/>
     <use xlink:href="#DejaVuSans-20" x="709.050781"/>
     <use xlink:href="#DejaVuSans-45" x="740.837891"/>
     <use xlink:href="#DejaVuSans-78" x="804.021484"/>
     <use xlink:href="#DejaVuSans-65" x="860.076172"/>
     <use xlink:href="#DejaVuSans-63" x="921.599609"/>
     <use xlink:href="#DejaVuSans-75" x="976.580078"/>
     <use xlink:href="#DejaVuSans-74" x="1039.958984"/>
     <use xlink:href="#DejaVuSans-69" x="1079.167969"/>
     <use xlink:href="#DejaVuSans-6f" x="1106.951172"/>
     <use xlink:href="#DejaVuSans-6e" x="1168.132812"/>
     <use xlink:href="#DejaVuSans-20" x="1231.511719"/>
     <use xlink:href="#DejaVuSans-54" x="1263.298828"/>
     <use xlink:href="#DejaVuSans-69" x="1321.257812"/>
     <use xlink:href="#DejaVuSans-6d" x="1349.041016"/>
     <use xlink:href="#DejaVuSans-65" x="1446.453125"/>
    </g>
   </g>
  </g>
 </g>
 <defs>
  <clipPath id="p8d49bc0d5c">
   <rect x="90" y="51.84" width="558" height="332.64"/>
  </clipPath>
 </defs>
</svg>
